<?xml version="1.0" encoding="UTF-8"?>
<svg id="Layer_2" data-name="Layer 2" xmlns="http://www.w3.org/2000/svg" viewBox="0 0 198.11 73">
  <defs>
    <style>
      .cls-1 {
        letter-spacing: 0em;
      }

      .cls-2, .cls-3 {
        fill: #fff;
      }

      .cls-4 {
        fill: #ea7a56;
        stroke: #fff;
        stroke-miterlimit: 10;
      }

      .cls-3 {
        font-family: NewHero-SemiBold, 'New Hero';
        font-size: 42.6px;
        font-weight: 600;
      }

      .cls-5 {
        letter-spacing: -.02em;
      }
    </style>
  </defs>
  <g id="Layer_1-2" data-name="Layer 1">
    <rect class="cls-4" x=".5" y=".5" width="197.11" height="72"/>
    <text class="cls-3" transform="translate(57.28 51.38)"><tspan class="cls-1" x="0" y="0">H</tspan><tspan x="33.52" y="0">o</tspan><tspan class="cls-5" x="61.17" y="0">r</tspan><tspan x="77.83" y="0" xml:space="preserve">a  </tspan></text>
    <g>
      <path class="cls-2" d="M50.05,23.69c.36-.08.62-.4.62-.79v-2.45c0-.45-.36-.81-.81-.81h-22.13c-.45,0-.81.36-.81.81v2.45c0,.38.27.7.62.79.24,4.36,2.51,8.35,6.16,10.8l1.53,1.02-1.53,1.02c-3.65,2.45-5.92,6.44-6.16,10.8-.36.08-.62.4-.62.79v2.45c0,.45.36.81.81.81h22.13c.45,0,.81-.36.81-.81v-2.45c0-.38-.27-.7-.62-.79-.24-4.36-2.51-8.35-6.16-10.8l-1.53-1.02,1.53-1.02c3.65-2.45,5.92-6.44,6.16-10.8h0ZM28.55,21.27h20.51v.83h-20.51v-.83ZM49.06,49.77h-20.51v-.83h20.51v.83ZM40.46,34.84c-.22.15-.36.4-.36.67s.13.52.36.67l2.53,1.7c3.2,2.14,5.19,5.62,5.44,9.43h-19.26c.25-3.81,2.24-7.29,5.44-9.43l2.53-1.7c.22-.15.36-.4.36-.67s-.13-.52-.36-.67l-2.53-1.7c-3.2-2.14-5.19-5.62-5.44-9.43h19.26c-.25,3.81-2.24,7.29-5.44,9.43l-2.53,1.7h0Z"/>
      <path class="cls-2" d="M40.91,30.8h-4.22c-.34,0-.64.21-.76.52-.12.31-.03.67.22.89l2.11,1.89c.15.14.35.21.54.21s.39-.07.54-.21l2.11-1.89c.25-.22.34-.58.22-.89-.12-.31-.42-.52-.76-.52Z"/>
      <path class="cls-2" d="M38.77,38.61l-2.05,1.32c-1.79,1.2-2.87,3.22-2.87,5.38h10.32c0-2.16-1.08-4.18-2.87-5.38l-2.05-1.32c-.14-.09-.33-.09-.47,0h0Z"/>
    </g>
  </g>
</svg>